PathFileType	4	(X/Y/Z)	C:/Users/opensim2020/Desktop/walking_exp_matlab/subject06_walking22_straight_02.trc																																																																																																																																		
DataRate	CameraRate	NumFrames	NumMarkers	Units	OrigDataRate	OrigDataStartFrame	OrigNumFrames																																																																																																																														
100	100	6	44	mm	100	1289	81																																																																																																																														
Frame#	Time	LFHD			RFHD			LBHD			RBHD			C7			T10			CLAV			STRN			RBAK			LSHO			LUPA			LELB			LFRM			LWRA			LWRB			LFIN			RSHO			RUPA			RELB			RFRM			RWRA			RWRB			RFIN			LASI			RASI			LPSI			RPSI			LTHI			LKNE			LTIB			LANK			LHEE			LTOE			RTHI			RKNE			RTIB			RANK			RHEE			RTOE			*39			*40			*41			*42			*43		
		X1	Y1	Z1	X2	Y2	Z2	X3	Y3	Z3	X4	Y4	Z4	X5	Y5	Z5	X6	Y6	Z6	X7	Y7	Z7	X8	Y8	Z8	X9	Y9	Z9	X10	Y10	Z10	X11	Y11	Z11	X12	Y12	Z12	X13	Y13	Z13	X14	Y14	Z14	X15	Y15	Z15	X16	Y16	Z16	X17	Y17	Z17	X18	Y18	Z18	X19	Y19	Z19	X20	Y20	Z20	X21	Y21	Z21	X22	Y22	Z22	X23	Y23	Z23	X24	Y24	Z24	X25	Y25	Z25	X26	Y26	Z26	X27	Y27	Z27	X28	Y28	Z28	X29	Y29	Z29	X30	Y30	Z30	X31	Y31	Z31	X32	Y32	Z32	X33	Y33	Z33	X34	Y34	Z34	X35	Y35	Z35	X36	Y36	Z36	X37	Y37	Z37	X38	Y38	Z38	X39	Y39	Z39	X40	Y40	Z40	X41	Y41	Z41	X42	Y42	Z42	X43	Y43	Z43	X44	Y44	Z44
																																																																																																																																					
31	0.3	-302.87805	1654.35974	907.31116	-289.9335	1655.37817	1039.10461	-437.51297	1607.57678	925.53467	-422.57837	1612.75708	1053.61218	-437.82071	1452.75745	986.41418	-479.35742	1126.4259	1003.16351	-329.65466	1373.48608	989.81732	-293.9483	1197.31079	989.81427	-515.79712	1287.6698	1068.91199	-383.73611	1401.86328	827.13507	-396.95615	1197.90967	761.16809	-406.66357	1085.03687	753.88336	-377.50601	937.49622	730.63458	-300.71597	830.08502	762.82666	-366.65918	818.59027	738.11566	-317.74182	742.48169	729.37488	-379.1171	1413.31934	1148.64417	-441.44925	1230.01038	1248.21228	-446.74158	1109.70105	1269.25586	-420.63251	994.52887	1292.33142	-340.59683	866.00165	1264.57288	-395.49786	859.89001	1304.68091	-347.88773	789.88214	1307.5376	-304.81769	961.09949	897.60876	-305.8429	969.32233	1115.79858	-461.93234	989.34985	922.59314	-455.22021	997.69751	1090.17651	-297.00937	654.71075	841.86426	-239.18507	503.06326	868.78729	-362.94901	286.15195	882.51154	-437.58273	131.77335	923.67365	-475.46017	130.65756	974.20123	-320.49939	51.34401	912.06451	-359.80795	630.92291	1161.39905	-356.89343	505.6842	1133.36792	-440.61951	250.32776	1130.67969	-494.50339	72.5015	1088.32764	-540.68799	50.38314	1047.56836	-347.29016	33.11167	1084.00732	-394.68301	1703.08423	972.58679	NaN	NaN	NaN	NaN	NaN	NaN	NaN	NaN	NaN	NaN	NaN	NaN
32	0.31	-288.12637	1653.3822	906.02527	-274.38187	1655.01563	1037.70044	-422.5119	1606.63501	925.18304	-407.29819	1612.63977	1053.45007	-422.54694	1452.07971	986.86212	-463.62036	1125.53174	1004.38354	-314.34924	1372.91577	989.81543	-278.26855	1196.80591	990.19562	-499.78702	1286.7229	1070.23303	-369.26105	1400.95178	827.33252	-384.98593	1197.17773	761.20502	-396.30319	1084.68115	753.61261	-372.43414	936.36743	729.43903	-300.24179	825.56085	760.50476	-367.01474	816.92035	736.30084	-321.80289	738.69324	726.95734	-363.08578	1413.2561	1148.80017	-423.06485	1229.74133	1249.30188	-426.96036	1109.71423	1270.90479	-396.68475	995.71747	1293.3219	-312.03586	870.63391	1263.87524	-365.97406	862.14838	1304.46191	-315.60706	794.19269	1306.51746	-288.92319	960.98163	898.45325	-290.58801	967.76764	1116.58411	-446.23077	989.00281	922.80481	-440.04971	996.63806	1090.53516	-277.68115	656.65387	841.19379	-217.56059	505.75174	868.1861	-328.99295	280.77505	882.09113	-392.755	121.53992	923.58899	-429.7807	117.53625	974.61353	-270.15222	49.98494	910.31177	-349.72937	629.69092	1161.1825	-350.2196	504.27505	1133.89685	-437.91306	250.144	1130.76294	-493.99545	73.00689	1088.14612	-540.33588	51.20628	1047.28809	-347.0657	32.81413	1084.03088	-379.41977	1702.41248	971.60767	NaN	NaN	NaN	NaN	NaN	NaN	NaN	NaN	NaN	NaN	NaN	NaN
33	0.32	-273.36942	1652.1582	904.83337	-258.9501	1654.3446	1036.45679	-407.63116	1605.32324	924.88708	-391.11996	1611.90173	1052.61707	-407.08105	1451.02161	987.15625	-447.88712	1124.27673	1005.42511	-298.73343	1372.02234	989.75641	-262.58173	1195.87061	990.50507	-483.90363	1285.42188	1071.55859	-354.75226	1399.61462	827.50714	-372.89261	1196.07153	761.17883	-385.84543	1083.95288	753.30151	-367.34824	935.29077	728.31708	-299.80038	821.15778	758.17023	-366.97958	815.6192	734.28369	-325.36099	735.21954	724.59009	-346.91483	1412.67993	1148.83081	-405.04715	1229.23853	1250.56189	-407.17932	1109.39404	1272.51013	-372.85547	996.71191	1294.21631	-283.53293	875.36353	1263.14453	-336.86493	864.45532	1304.10034	-283.52505	798.70123	1305.17932	-273.04315	960.39948	899.27399	-275.59	965.87091	1117.12097	-430.48178	988.23938	922.8446	-425.05777	995.32245	1090.71484	-258.2504	657.88013	840.17029	-196.95464	507.70334	867.46851	-294.71396	275.27185	881.51062	-346.61227	111.76546	923.31561	-383.11322	105.14973	974.75818	-219.50891	49.53537	909.04095	-339.78311	628.34698	1160.87085	-343.43274	502.86334	1134.43701	-435.25418	249.99072	1130.90491	-493.46826	73.56613	1087.94543	-540.04462	52.25975	1047.04089	-346.82617	32.47616	1083.94165	-364.44189	1701.45984	970.60236	NaN	NaN	NaN	NaN	NaN	NaN	NaN	NaN	NaN	NaN	NaN	NaN
34	0.33	-258.513	1650.52563	903.67731	-243.50462	1653.34314	1035.14099	-392.57004	1603.69177	924.50311	-376.06439	1610.84106	1052.53979	-391.60855	1449.552	987.43677	-432.1012	1122.6554	1006.26892	-283.16638	1370.74475	989.65149	-246.91203	1194.57373	990.79114	-467.94736	1283.83118	1072.81226	-340.06821	1397.9198	827.61847	-360.67975	1194.69165	761.11761	-375.54993	1082.93445	753.02936	-362.03839	934.02338	727.13049	-298.96487	817.13348	755.86749	-366.38104	814.36115	732.07947	-328.43024	732.17126	722.35999	-330.85968	1411.77429	1148.9104	-387.15121	1228.11389	1251.43079	-387.42352	1108.73474	1274.06287	-349.11423	997.56757	1295.01746	-255.63588	880.10919	1262.15784	-308.15451	866.84766	1303.41809	-252.15273	803.28693	1303.81238	-257.21945	959.37842	900.00995	-260.70386	963.85352	1117.5614	-414.74139	987.03052	922.68622	-410.1405	993.76105	1090.75989	-239.89156	658.45667	839.25079	-177.43661	508.83853	866.66437	-260.30746	269.65424	880.43866	-300.31229	102.88663	922.41443	-336.13608	93.7326	974.01086	-168.4897	50.14679	908.46002	-329.76364	627.00537	1160.63708	-336.5657	501.46359	1134.95081	-432.59991	249.99693	1130.90393	-493.11191	74.38048	1087.62939	-539.75604	53.4038	1046.6438	-346.72855	32.17193	1083.9552	-349.28049	1699.99524	969.67249	NaN	NaN	NaN	NaN	NaN	NaN	NaN	NaN	NaN	NaN	NaN	NaN
35	0.34	-243.74548	1648.70593	902.47693	-228.10031	1652.0459	1033.92383	-377.59027	1601.69263	924.17487	-360.43201	1609.45129	1052.07581	-376.1326	1447.97754	987.66064	-416.5705	1120.85095	1006.92065	-267.70486	1369.07471	989.59808	-231.29881	1192.89465	990.961	-452.04077	1281.98596	1073.99927	-325.13309	1395.80664	827.63055	-348.28809	1192.92078	760.97992	-365.89371	1081.58069	752.71942	-356.78409	932.71826	725.98761	-297.88675	813.32965	753.6615	-365.20956	813.23608	729.67065	-330.81607	729.35547	720.04694	-314.76141	1410.49426	1148.9635	-369.30914	1226.87781	1252.58594	-367.66507	1107.76404	1275.54187	-325.51572	998.23242	1295.68237	-228.0838	884.88898	1261.10974	-279.61362	869.23053	1302.85144	-220.92795	808.16345	1302.31714	-241.3246	958.0636	900.78326	-245.90976	961.69843	1118.05591	-399.3013	985.61499	922.41699	-395.24307	992.00378	1090.62183	-222.24625	658.10449	838.35773	-158.71483	509.11771	865.81927	-225.73032	264.22668	879.07574	-253.12273	94.93015	921.59753	-288.87381	83.5007	972.8479	-118.08088	51.58915	908.26709	-319.77286	625.63635	1160.45117	-329.65161	500.10339	1135.55164	-429.79868	250.08603	1130.80811	-492.61996	75.19049	1087.19775	-539.49078	54.7831	1045.88647	-346.7041	31.92726	1083.93652	-334.358	1698.34387	968.73859	NaN	NaN	NaN	NaN	NaN	NaN	NaN	NaN	NaN	NaN	NaN	NaN
36	0.35	-228.88481	1646.67883	901.3938	-212.61049	1650.53711	1032.6748	-362.66037	1599.50635	923.89429	-344.42859	1607.61426	1051.40479	-360.54285	1446.05396	987.74329	-400.89435	1118.74609	1007.16467	-252.06834	1367.14832	989.44427	-215.78807	1190.84888	991.11035	-436.15314	1280.06384	1075.0614	-310.03	1393.38977	827.55383	-335.95721	1190.81531	760.80414	-356.17169	1080.03784	752.4978	-351.43237	931.29718	724.85516	-296.00385	809.88312	751.60077	-363.66211	812.28259	727.5191	-332.74329	726.91589	717.82312	-298.73715	1409.00989	1149.00452	-351.45563	1225.31384	1253.62256	-348.02731	1106.52136	1276.91785	-302.15988	998.71564	1296.23169	-201.19737	889.43091	1259.78564	-251.37212	871.5943	1302.07422	-190.14862	813.03955	1300.56567	-225.40208	956.46875	901.38678	-231.16341	959.48926	1118.53247	-383.59302	983.61725	922.03516	-380.37915	990.03802	1090.349	-205.71153	656.95135	837.8678	-140.73334	508.66019	865.18555	-191.15219	259.30975	877.78613	-206.34296	88.33789	920.44299	-241.52577	74.6639	971.37366	-68.22482	54.09394	908.17297	-309.42722	624.32367	1160.39063	-322.43588	498.84912	1136.2312	-426.95392	250.34656	1130.49854	-492.11792	76.40051	1086.47644	-539.05035	56.64847	1044.8396	-346.53836	31.59539	1083.86145	-319.30289	1696.32129	967.86926	NaN	NaN	NaN	NaN	NaN	NaN	NaN	NaN	NaN	NaN	NaN	NaN
